<?xml version="1.0" encoding="UTF-8" standalone="no"?>
<!DOCTYPE svg PUBLIC "-//W3C//DTD SVG 1.1//EN"
 "http://www.w3.org/Graphics/SVG/1.1/DTD/svg11.dtd">
<!-- Generated by graphviz version 14.0.2 (20251019.1705)
 -->
<!-- Pages: 1 -->
<svg width="1675pt" height="187pt"
 viewBox="0.00 0.00 1675.00 187.00" xmlns="http://www.w3.org/2000/svg" xmlns:xlink="http://www.w3.org/1999/xlink">
<g id="graph0" class="graph" transform="scale(1 1) rotate(0) translate(4 182.5)">
<polygon fill="white" stroke="none" points="-4,4 -4,-182.5 1670.5,-182.5 1670.5,4 -4,4"/>
<!-- 2319052680256 -->
<g id="node1" class="node">
<title>2319052680256</title>
<polygon fill="none" stroke="black" points="1241.75,-22 1241.75,-96 1666.5,-96 1666.5,-22 1241.75,-22"/>
<text xml:space="preserve" text-anchor="middle" x="1268.5" y="-53.95" font-family="Times New Roman,serif" font-size="14.00">Output</text>
<polyline fill="none" stroke="black" points="1295.25,-22 1295.25,-96"/>
<text xml:space="preserve" text-anchor="middle" x="1335.5" y="-53.95" font-family="Times New Roman,serif" font-size="14.00">shape (3, 4)</text>
<polyline fill="none" stroke="black" points="1375.75,-22 1375.75,-96"/>
<text xml:space="preserve" text-anchor="middle" x="1477.88" y="-78.7" font-family="Times New Roman,serif" font-size="14.00">data:</text>
<text xml:space="preserve" text-anchor="middle" x="1477.88" y="-62.2" font-family="Times New Roman,serif" font-size="14.00">[[&#45;0.4033 0.5929 &#45;0.4832 &#45;1.2553]</text>
<text xml:space="preserve" text-anchor="middle" x="1477.88" y="-45.7" font-family="Times New Roman,serif" font-size="14.00"> [ 0.0094 &#45;1.1162 0.5856 &#45;0.3488]</text>
<text xml:space="preserve" text-anchor="middle" x="1477.88" y="-29.2" font-family="Times New Roman,serif" font-size="14.00"> [&#45;0.229 1.3602 &#45;2.5096 &#45;1.4867]]</text>
<polyline fill="none" stroke="black" points="1580,-22 1580,-96"/>
<text xml:space="preserve" text-anchor="middle" x="1623.25" y="-78.7" font-family="Times New Roman,serif" font-size="14.00">grad:</text>
<text xml:space="preserve" text-anchor="middle" x="1623.25" y="-62.2" font-family="Times New Roman,serif" font-size="14.00">[[1. 1. 1. 1.]</text>
<text xml:space="preserve" text-anchor="middle" x="1623.25" y="-45.7" font-family="Times New Roman,serif" font-size="14.00"> [1. 1. 1. 1.]</text>
<text xml:space="preserve" text-anchor="middle" x="1623.25" y="-29.2" font-family="Times New Roman,serif" font-size="14.00"> [1. 1. 1. 1.]]</text>
</g>
<!-- 2319052680256+ -->
<g id="node2" class="node">
<title>2319052680256+</title>
<ellipse fill="none" stroke="black" cx="1178.75" cy="-59" rx="27" ry="18"/>
<text xml:space="preserve" text-anchor="middle" x="1178.75" y="-53.95" font-family="Times New Roman,serif" font-size="14.00">+</text>
</g>
<!-- 2319052680256+&#45;&gt;2319052680256 -->
<g id="edge1" class="edge">
<title>2319052680256+&#45;&gt;2319052680256</title>
<path fill="none" stroke="black" d="M1205.96,-59C1212.95,-59 1221.08,-59 1230.05,-59"/>
<polygon fill="black" stroke="black" points="1229.88,-62.5 1239.88,-59 1229.88,-55.5 1229.88,-62.5"/>
</g>
<!-- 2319054277328 -->
<g id="node3" class="node">
<title>2319054277328</title>
<polygon fill="none" stroke="black" points="93,-104 93,-178 463.75,-178 463.75,-104 93,-104"/>
<text xml:space="preserve" text-anchor="middle" x="123.12" y="-135.95" font-family="Times New Roman,serif" font-size="14.00">X_input</text>
<polyline fill="none" stroke="black" points="153.25,-104 153.25,-178"/>
<text xml:space="preserve" text-anchor="middle" x="193.5" y="-135.95" font-family="Times New Roman,serif" font-size="14.00">shape (3, 2)</text>
<polyline fill="none" stroke="black" points="233.75,-104 233.75,-178"/>
<text xml:space="preserve" text-anchor="middle" x="293.88" y="-160.7" font-family="Times New Roman,serif" font-size="14.00">data:</text>
<text xml:space="preserve" text-anchor="middle" x="293.88" y="-144.2" font-family="Times New Roman,serif" font-size="14.00">[[ 0.8942 &#45;0.5105]</text>
<text xml:space="preserve" text-anchor="middle" x="293.88" y="-127.7" font-family="Times New Roman,serif" font-size="14.00"> [&#45;0.2529 &#45;1.5031]</text>
<text xml:space="preserve" text-anchor="middle" x="293.88" y="-111.2" font-family="Times New Roman,serif" font-size="14.00"> [ 1.7245 &#45;0.8967]]</text>
<polyline fill="none" stroke="black" points="354,-104 354,-178"/>
<text xml:space="preserve" text-anchor="middle" x="408.88" y="-160.7" font-family="Times New Roman,serif" font-size="14.00">grad:</text>
<text xml:space="preserve" text-anchor="middle" x="408.88" y="-144.2" font-family="Times New Roman,serif" font-size="14.00">[[&#45;1.238 0.7466]</text>
<text xml:space="preserve" text-anchor="middle" x="408.88" y="-127.7" font-family="Times New Roman,serif" font-size="14.00"> [&#45;1.238 0.7466]</text>
<text xml:space="preserve" text-anchor="middle" x="408.88" y="-111.2" font-family="Times New Roman,serif" font-size="14.00"> [&#45;1.238 0.7466]]</text>
</g>
<!-- 2319052679952@ -->
<g id="node5" class="node">
<title>2319052679952@</title>
<ellipse fill="none" stroke="black" cx="619.75" cy="-98" rx="27" ry="18"/>
<text xml:space="preserve" text-anchor="middle" x="619.75" y="-92.95" font-family="Times New Roman,serif" font-size="14.00">@</text>
</g>
<!-- 2319054277328&#45;&gt;2319052679952@ -->
<g id="edge4" class="edge">
<title>2319054277328&#45;&gt;2319052679952@</title>
<path fill="none" stroke="black" d="M463.96,-117.61C508.78,-111.93 552.2,-106.43 581.59,-102.71"/>
<polygon fill="black" stroke="black" points="581.92,-106.19 591.4,-101.47 581.04,-99.25 581.92,-106.19"/>
</g>
<!-- 2319052679952 -->
<g id="node4" class="node">
<title>2319052679952</title>
<polygon fill="none" stroke="black" points="682.75,-61 682.75,-135 1115.75,-135 1115.75,-61 682.75,-61"/>
<text xml:space="preserve" text-anchor="middle" x="712.12" y="-92.95" font-family="Times New Roman,serif" font-size="14.00">X @ W</text>
<polyline fill="none" stroke="black" points="741.5,-61 741.5,-135"/>
<text xml:space="preserve" text-anchor="middle" x="781.75" y="-92.95" font-family="Times New Roman,serif" font-size="14.00">shape (3, 4)</text>
<polyline fill="none" stroke="black" points="822,-61 822,-135"/>
<text xml:space="preserve" text-anchor="middle" x="925.62" y="-117.7" font-family="Times New Roman,serif" font-size="14.00">data:</text>
<text xml:space="preserve" text-anchor="middle" x="925.62" y="-101.2" font-family="Times New Roman,serif" font-size="14.00">[[ 0.2282 0.7863 &#45;2.2897 &#45;0.2129]</text>
<text xml:space="preserve" text-anchor="middle" x="925.62" y="-84.7" font-family="Times New Roman,serif" font-size="14.00"> [ 0.6409 &#45;0.9228 &#45;1.2208 0.6937]</text>
<text xml:space="preserve" text-anchor="middle" x="925.62" y="-68.2" font-family="Times New Roman,serif" font-size="14.00"> [ 0.4024 1.5536 &#45;4.3161 &#45;0.4443]]</text>
<polyline fill="none" stroke="black" points="1029.25,-61 1029.25,-135"/>
<text xml:space="preserve" text-anchor="middle" x="1072.5" y="-117.7" font-family="Times New Roman,serif" font-size="14.00">grad:</text>
<text xml:space="preserve" text-anchor="middle" x="1072.5" y="-101.2" font-family="Times New Roman,serif" font-size="14.00">[[1. 1. 1. 1.]</text>
<text xml:space="preserve" text-anchor="middle" x="1072.5" y="-84.7" font-family="Times New Roman,serif" font-size="14.00"> [1. 1. 1. 1.]</text>
<text xml:space="preserve" text-anchor="middle" x="1072.5" y="-68.2" font-family="Times New Roman,serif" font-size="14.00"> [1. 1. 1. 1.]]</text>
</g>
<!-- 2319052679952&#45;&gt;2319052680256+ -->
<g id="edge3" class="edge">
<title>2319052679952&#45;&gt;2319052680256+</title>
<path fill="none" stroke="black" d="M1116.16,-67.66C1125.06,-66.41 1133.33,-65.24 1140.74,-64.2"/>
<polygon fill="black" stroke="black" points="1141.09,-67.69 1150.5,-62.83 1140.11,-60.76 1141.09,-67.69"/>
</g>
<!-- 2319052679952@&#45;&gt;2319052679952 -->
<g id="edge2" class="edge">
<title>2319052679952@&#45;&gt;2319052679952</title>
<path fill="none" stroke="black" d="M647.11,-98C654.08,-98 662.19,-98 671.15,-98"/>
<polygon fill="black" stroke="black" points="670.96,-101.5 680.96,-98 670.96,-94.5 670.96,-101.5"/>
</g>
<!-- 2319054293264 -->
<g id="node6" class="node">
<title>2319054293264</title>
<polygon fill="none" stroke="black" points="691,-0.5 691,-41.5 1107.5,-41.5 1107.5,-0.5 691,-0.5"/>
<text xml:space="preserve" text-anchor="middle" x="711" y="-15.95" font-family="Times New Roman,serif" font-size="14.00">Bias</text>
<polyline fill="none" stroke="black" points="731,-0.5 731,-41.5"/>
<text xml:space="preserve" text-anchor="middle" x="771.25" y="-15.95" font-family="Times New Roman,serif" font-size="14.00">shape (1, 4)</text>
<polyline fill="none" stroke="black" points="811.5,-0.5 811.5,-41.5"/>
<text xml:space="preserve" text-anchor="middle" x="915.88" y="-24.2" font-family="Times New Roman,serif" font-size="14.00">data:</text>
<text xml:space="preserve" text-anchor="middle" x="915.88" y="-7.7" font-family="Times New Roman,serif" font-size="14.00">[[&#45;0.6315 &#45;0.1934 1.8065 &#45;1.0424]]</text>
<polyline fill="none" stroke="black" points="1020.25,-0.5 1020.25,-41.5"/>
<text xml:space="preserve" text-anchor="middle" x="1063.88" y="-24.2" font-family="Times New Roman,serif" font-size="14.00">grad:</text>
<text xml:space="preserve" text-anchor="middle" x="1063.88" y="-7.7" font-family="Times New Roman,serif" font-size="14.00">[[3. 3. 3. 3.]]</text>
</g>
<!-- 2319054293264&#45;&gt;2319052680256+ -->
<g id="edge5" class="edge">
<title>2319054293264&#45;&gt;2319052680256+</title>
<path fill="none" stroke="black" d="M1053.21,-41.95C1085.95,-46.43 1117.62,-50.77 1140.83,-53.94"/>
<polygon fill="black" stroke="black" points="1140.28,-57.4 1150.66,-55.29 1141.23,-50.47 1140.28,-57.4"/>
</g>
<!-- 2319054292944 -->
<g id="node7" class="node">
<title>2319054292944</title>
<polygon fill="none" stroke="black" points="0,-27.25 0,-84.75 556.75,-84.75 556.75,-27.25 0,-27.25"/>
<text xml:space="preserve" text-anchor="middle" x="30.12" y="-50.95" font-family="Times New Roman,serif" font-size="14.00">Weights</text>
<polyline fill="none" stroke="black" points="60.25,-27.25 60.25,-84.75"/>
<text xml:space="preserve" text-anchor="middle" x="100.5" y="-50.95" font-family="Times New Roman,serif" font-size="14.00">shape (2, 4)</text>
<polyline fill="none" stroke="black" points="140.75,-27.25 140.75,-84.75"/>
<text xml:space="preserve" text-anchor="middle" x="242.5" y="-67.45" font-family="Times New Roman,serif" font-size="14.00">data:</text>
<text xml:space="preserve" text-anchor="middle" x="242.5" y="-50.95" font-family="Times New Roman,serif" font-size="14.00">[[ 0.0107 1.122 &#45;1.9132 &#45;0.4576]</text>
<text xml:space="preserve" text-anchor="middle" x="242.5" y="-34.45" font-family="Times New Roman,serif" font-size="14.00"> [&#45;0.4282 0.4252 1.1341 &#45;0.3845]]</text>
<polyline fill="none" stroke="black" points="344.25,-27.25 344.25,-84.75"/>
<text xml:space="preserve" text-anchor="middle" x="450.5" y="-67.45" font-family="Times New Roman,serif" font-size="14.00">grad:</text>
<text xml:space="preserve" text-anchor="middle" x="450.5" y="-50.95" font-family="Times New Roman,serif" font-size="14.00">[[ 2.3658 2.3658 2.3658 2.3658]</text>
<text xml:space="preserve" text-anchor="middle" x="450.5" y="-34.45" font-family="Times New Roman,serif" font-size="14.00"> [&#45;2.9103 &#45;2.9103 &#45;2.9103 &#45;2.9103]]</text>
</g>
<!-- 2319054292944&#45;&gt;2319052679952@ -->
<g id="edge6" class="edge">
<title>2319054292944&#45;&gt;2319052679952@</title>
<path fill="none" stroke="black" d="M515.54,-85.23C540.93,-88.37 563.97,-91.22 581.8,-93.43"/>
<polygon fill="black" stroke="black" points="581.15,-96.87 591.5,-94.63 582.01,-89.93 581.15,-96.87"/>
</g>
</g>
</svg>
